# xmcd
#
# Track frame offsets:
#	150
#	16742
#	31414
#	46776
#	62057
#	79586
#	91361
#	106731
#	120553
#	135981
#	145544
#	154689
#	174980
#	191770
#	204485
#	216489
#	230029
#
# Disc length: 3294 seconds
#
# Revision: 1
# Processed by: cddbd v1.5.2PL0 Copyright (c) Steve Scherf et al.
# Submitted via: audiograbber 1.83.01
#
DISCID=d90cdc11
DTITLE=Nashville  - 2.1
DYEAR=2013
DGENRE=Country
TTITLE0=What If I was willing
TTITLE1=Can't get It Right
TTITLE2=A Life That's Good
TTITLE3=Ball And Chain
TTITLE4=This Town
TTITLE5=Trouble Is
TTITLE6=Playin' Tricks
TTITLE7=Why Can't I Say Goodnight
TTITLE8=Tell Me
TTITLE9=Wayfaring Stranger
TTITLE10=Share With You
TTITLE11=How You Learn To Live Alone
TTITLE12=Can't Say No To You
TTITLE13=Waitin'
TTITLE14=Be My Girl
TTITLE15=Come See About Me
TTITLE16=A Life That's Good
EXTD=
EXTT0=
EXTT1=
EXTT2=
EXTT3=
EXTT4=
EXTT5=
EXTT6=
EXTT7=
EXTT8=
EXTT9=
EXTT10=
EXTT11=
EXTT12=
EXTT13=
EXTT14=
EXTT15=
EXTT16=
PLAYORDER=
